<svg id="レイヤー_1" data-name="レイヤー 1" xmlns="http://www.w3.org/2000/svg" viewBox="0 0 448 512"><defs><style>.cls-1{fill:#f9f9f9;}</style></defs><path class="cls-1" d="M160,32V64H288V32a32,32,0,0,1,64,0V64h48a48.006,48.006,0,0,1,48,48v48H0V112A47.99957,47.99957,0,0,1,48,64H96V32a32,32,0,0,1,64,0ZM0,192H448V464a48.01238,48.01238,0,0,1-48,48H48A48.006,48.006,0,0,1,0,464ZM64,304a16.02125,16.02125,0,0,0,16,16h32a16.04705,16.04705,0,0,0,16-16V272a16.047,16.047,0,0,0-16-16H80a16.02124,16.02124,0,0,0-16,16Zm128,0a16.04705,16.04705,0,0,0,16,16h32a16.04705,16.04705,0,0,0,16-16V272a16.047,16.047,0,0,0-16-16H208a16.047,16.047,0,0,0-16,16Zm144-48a16.04705,16.04705,0,0,0-16,16v32a16.04706,16.04706,0,0,0,16,16h32a16.04706,16.04706,0,0,0,16-16V272a16.04705,16.04705,0,0,0-16-16ZM64,432a16.02125,16.02125,0,0,0,16,16h32a16.04705,16.04705,0,0,0,16-16V400a16.047,16.047,0,0,0-16-16H80a16.02124,16.02124,0,0,0-16,16Zm144-48a16.047,16.047,0,0,0-16,16v32a16.04705,16.04705,0,0,0,16,16h32a16.04705,16.04705,0,0,0,16-16V400a16.047,16.047,0,0,0-16-16Zm112,48a16.04706,16.04706,0,0,0,16,16h32a16.04706,16.04706,0,0,0,16-16V400a16.04705,16.04705,0,0,0-16-16H336a16.04705,16.04705,0,0,0-16,16Z" transform="translate(0 0.00001)"/></svg>