<svg id="レイヤー_1" data-name="レイヤー 1" xmlns="http://www.w3.org/2000/svg" viewBox="0 0 512 448"><defs><style>.cls-1{fill:#f9f9f9;}</style></defs><path class="cls-1" d="M64,400a16.02125,16.02125,0,0,0,16,16H480a32,32,0,0,1,0,64H80A79.99075,79.99075,0,0,1,0,400V64a32,32,0,0,1,64,0ZM342.6,278.6a31.92806,31.92806,0,0,1-45.2,0L240,221.3l-89.4,89.3a31.96123,31.96123,0,1,1-45.2-45.2l112-112a31.92806,31.92806,0,0,1,45.2,0L320,210.7,425.4,105.4a31.96123,31.96123,0,1,1,45.2,45.2Z" transform="translate(0 -31.99999)"/></svg>