<svg id="レイヤー_1" data-name="レイヤー 1" xmlns="http://www.w3.org/2000/svg" viewBox="0 0 482.58178 512"><defs><style>.cls-1{fill:#f9f9f9;}</style></defs><path class="cls-1" d="M495.9,166.6c3.3,8.6.5,18.3-6.3,24.6l-43.3,39.4a190.60176,190.60176,0,0,1,0,50.8l43.3,39.4c6.8,6.3,9.6,16,6.3,24.6a253.85619,253.85619,0,0,1-15.7,34.3l-4.7,8.1a263.47568,263.47568,0,0,1-22.1,31.3,22.8749,22.8749,0,0,1-24.5,6.8l-55.7-17.8c-13.4,10.3-29.1,18.9-44,25.5l-12.5,57.1c-2,9-9,15.4-18.2,17.8a261.307,261.307,0,0,1-43.4,3.5,255.75786,255.75786,0,0,1-41.6-3.5c-9.2-2.4-16.2-8.8-18.2-17.8l-12.5-57.1a196.54477,196.54477,0,0,1-44-25.5L83.14,425.9a22.83127,22.83127,0,0,1-24.51-6.8,262.40455,262.40455,0,0,1-22.11-31.3l-4.68-8.1a249.41492,249.41492,0,0,1-15.78-34.3c-3.24-8.6-.51-18.3,6.35-24.6l43.26-39.4a193.9966,193.9966,0,0,1,0-50.8L22.41,191.2c-6.86-6.3-9.59-15.9-6.35-24.6a250.60112,250.60112,0,0,1,15.78-34.3l4.67-8.1A259.05638,259.05638,0,0,1,58.63,92.95a22.71269,22.71269,0,0,1,24.51-6.81L138.8,103.9a192.31322,192.31322,0,0,1,44-25.47l12.5-57.1A22.68682,22.68682,0,0,1,213.5,3.51a259.05557,259.05557,0,0,1,85,0,22.68682,22.68682,0,0,1,18.2,17.82l12.5,57.1c14.9,6.53,30.6,15.13,44,25.47l55.7-17.76a22.7556,22.7556,0,0,1,24.5,6.81,258.90458,258.90458,0,0,1,22.1,31.25l4.7,8.1a253.85256,253.85256,0,0,1,15.7,34.3ZM256,336c44.2,0,80-35.8,80-80.9,0-43.3-35.8-80-80-80s-80,36.7-80,80C176,300.2,211.8,336,256,336Z" transform="translate(-14.70192 0.00001)"/></svg>