<svg id="レイヤー_1" data-name="レイヤー 1" xmlns="http://www.w3.org/2000/svg" viewBox="0 0 576 448"><defs><style>.cls-1{fill:#f9f9f9;}</style></defs><path class="cls-1" d="M0,96A63.99517,63.99517,0,0,1,64,32H512a64.0272,64.0272,0,0,1,64,64V416a64.05929,64.05929,0,0,1-64,64H64A64.0272,64.0272,0,0,1,0,416ZM160,256a32,32,0,1,0-32,32A31.96564,31.96564,0,0,0,160,256Zm0-96a32,32,0,1,0-32,32A31.96564,31.96564,0,0,0,160,160Zm0,192a32,32,0,1,0-32,32A31.96562,31.96562,0,0,0,160,352Zm64-216a24,24,0,0,0,0,48H448a24,24,0,0,0,0-48Zm0,96a24,24,0,1,0,0,48H448a24,24,0,0,0,0-48Zm0,96a24,24,0,0,0,0,48H448a24,24,0,0,0,0-48Z" transform="translate(0 -31.99999)"/></svg>